<svg width="387" height="38" viewBox="0 0 387 38" fill="none" xmlns="http://www.w3.org/2000/svg">
<path d="M36.2 2.4V37H31.65V11.2L20.15 37H16.95L5.40001 11.15V37H0.850006V2.4H5.75001L18.55 31L31.35 2.4H36.2Z" fill="#141414"/>
<path d="M42.2164 23.2C42.2164 20.4 42.7831 17.95 43.9164 15.85C45.0497 13.7167 46.5997 12.0667 48.5664 10.9C50.5664 9.73333 52.7831 9.15 55.2164 9.15C57.6164 9.15 59.6997 9.66666 61.4664 10.7C63.2331 11.7333 64.5497 13.0333 65.4164 14.6V9.6H70.0164V37H65.4164V31.9C64.5164 33.5 63.1664 34.8333 61.3664 35.9C59.5997 36.9333 57.5331 37.45 55.1664 37.45C52.7331 37.45 50.5331 36.85 48.5664 35.65C46.5997 34.45 45.0497 32.7667 43.9164 30.6C42.7831 28.4333 42.2164 25.9667 42.2164 23.2ZM65.4164 23.25C65.4164 21.1833 64.9997 19.3833 64.1664 17.85C63.3331 16.3167 62.1997 15.15 60.7664 14.35C59.3664 13.5167 57.8164 13.1 56.1164 13.1C54.4164 13.1 52.8664 13.5 51.4664 14.3C50.0664 15.1 48.9497 16.2667 48.1164 17.8C47.2831 19.3333 46.8664 21.1333 46.8664 23.2C46.8664 25.3 47.2831 27.1333 48.1164 28.7C48.9497 30.2333 50.0664 31.4167 51.4664 32.25C52.8664 33.05 54.4164 33.45 56.1164 33.45C57.8164 33.45 59.3664 33.05 60.7664 32.25C62.1997 31.4167 63.3331 30.2333 64.1664 28.7C64.9997 27.1333 65.4164 25.3167 65.4164 23.25Z" fill="#141414"/>
<path d="M83.2555 13.35V29.5C83.2555 30.8333 83.5388 31.7833 84.1055 32.35C84.6721 32.8833 85.6555 33.15 87.0555 33.15H90.4055V37H86.3055C83.7721 37 81.8721 36.4167 80.6055 35.25C79.3388 34.0833 78.7055 32.1667 78.7055 29.5V13.35H75.1555V9.6H78.7055V2.7H83.2555V9.6H90.4055V13.35H83.2555Z" fill="#141414"/>
<path d="M109.518 9.1C111.585 9.1 113.452 9.55 115.118 10.45C116.785 11.3167 118.085 12.6333 119.018 14.4C119.985 16.1667 120.468 18.3167 120.468 20.85V37H115.968V21.5C115.968 18.7667 115.285 16.6833 113.918 15.25C112.552 13.7833 110.685 13.05 108.318 13.05C105.918 13.05 104.002 13.8 102.568 15.3C101.168 16.8 100.468 18.9833 100.468 21.85V37H95.9184V0H100.468V13.5C101.368 12.1 102.602 11.0167 104.168 10.25C105.768 9.48333 107.552 9.1 109.518 9.1Z" fill="#141414"/>
<path d="M152.901 22.25C152.901 23.1167 152.851 24.0333 152.751 25H130.851C131.017 27.7 131.934 29.8167 133.601 31.35C135.301 32.85 137.351 33.6 139.751 33.6C141.717 33.6 143.351 33.15 144.651 32.25C145.984 31.3167 146.917 30.0833 147.451 28.55H152.351C151.617 31.1833 150.151 33.3333 147.951 35C145.751 36.6333 143.017 37.45 139.751 37.45C137.151 37.45 134.817 36.8667 132.751 35.7C130.717 34.5333 129.117 32.8833 127.951 30.75C126.784 28.5833 126.201 26.0833 126.201 23.25C126.201 20.4167 126.767 17.9333 127.901 15.8C129.034 13.6667 130.617 12.0333 132.651 10.9C134.717 9.73333 137.084 9.15 139.751 9.15C142.351 9.15 144.651 9.71667 146.651 10.85C148.651 11.9833 150.184 13.55 151.251 15.55C152.351 17.5167 152.901 19.75 152.901 22.25ZM148.201 21.3C148.201 19.5667 147.817 18.0833 147.051 16.85C146.284 15.5833 145.234 14.6333 143.901 14C142.601 13.3333 141.151 13 139.551 13C137.251 13 135.284 13.7333 133.651 15.2C132.051 16.6667 131.134 18.7 130.901 21.3H148.201Z" fill="#141414"/>
<path d="M183.207 9.6V37H178.657V32.95C177.79 34.35 176.573 35.45 175.007 36.25C173.473 37.0167 171.773 37.4 169.907 37.4C167.773 37.4 165.857 36.9667 164.157 36.1C162.457 35.2 161.107 33.8667 160.107 32.1C159.14 30.3333 158.657 28.1833 158.657 25.65V9.6H163.157V25.05C163.157 27.75 163.84 29.8333 165.207 31.3C166.573 32.7333 168.44 33.45 170.807 33.45C173.24 33.45 175.157 32.7 176.557 31.2C177.957 29.7 178.657 27.5167 178.657 24.65V9.6H183.207Z" fill="#141414"/>
<path d="M200.589 37.45C198.489 37.45 196.606 37.1 194.939 36.4C193.272 35.6667 191.956 34.6667 190.989 33.4C190.022 32.1 189.489 30.6167 189.389 28.95H194.089C194.222 30.3167 194.856 31.4333 195.989 32.3C197.156 33.1667 198.672 33.6 200.539 33.6C202.272 33.6 203.639 33.2167 204.639 32.45C205.639 31.6833 206.139 30.7167 206.139 29.55C206.139 28.35 205.606 27.4667 204.539 26.9C203.472 26.3 201.822 25.7167 199.589 25.15C197.556 24.6167 195.889 24.0833 194.589 23.55C193.322 22.9833 192.222 22.1667 191.289 21.1C190.389 20 189.939 18.5667 189.939 16.8C189.939 15.4 190.356 14.1167 191.189 12.95C192.022 11.7833 193.206 10.8667 194.739 10.2C196.272 9.5 198.022 9.15 199.989 9.15C203.022 9.15 205.472 9.91667 207.339 11.45C209.206 12.9833 210.206 15.0833 210.339 17.75H205.789C205.689 16.3167 205.106 15.1667 204.039 14.3C203.006 13.4333 201.606 13 199.839 13C198.206 13 196.906 13.35 195.939 14.05C194.972 14.75 194.489 15.6667 194.489 16.8C194.489 17.7 194.772 18.45 195.339 19.05C195.939 19.6167 196.672 20.0833 197.539 20.45C198.439 20.7833 199.672 21.1667 201.239 21.6C203.206 22.1333 204.806 22.6667 206.039 23.2C207.272 23.7 208.322 24.4667 209.189 25.5C210.089 26.5333 210.556 27.8833 210.589 29.55C210.589 31.05 210.172 32.4 209.339 33.6C208.506 34.8 207.322 35.75 205.789 36.45C204.289 37.1167 202.556 37.45 200.589 37.45Z" fill="#141414"/>
<path d="M234.892 33.3H247.092V37H230.342V2.15H234.892V33.3Z" fill="#141414"/>
<path d="M276.924 22.25C276.924 23.1167 276.874 24.0333 276.774 25H254.874C255.041 27.7 255.958 29.8167 257.624 31.35C259.324 32.85 261.374 33.6 263.774 33.6C265.741 33.6 267.374 33.15 268.674 32.25C270.008 31.3167 270.941 30.0833 271.474 28.55H276.374C275.641 31.1833 274.174 33.3333 271.974 35C269.774 36.6333 267.041 37.45 263.774 37.45C261.174 37.45 258.841 36.8667 256.774 35.7C254.741 34.5333 253.141 32.8833 251.974 30.75C250.808 28.5833 250.224 26.0833 250.224 23.25C250.224 20.4167 250.791 17.9333 251.924 15.8C253.058 13.6667 254.641 12.0333 256.674 10.9C258.741 9.73333 261.108 9.15 263.774 9.15C266.374 9.15 268.674 9.71667 270.674 10.85C272.674 11.9833 274.208 13.55 275.274 15.55C276.374 17.5167 276.924 19.75 276.924 22.25ZM272.224 21.3C272.224 19.5667 271.841 18.0833 271.074 16.85C270.308 15.5833 269.258 14.6333 267.924 14C266.624 13.3333 265.174 13 263.574 13C261.274 13 259.308 13.7333 257.674 15.2C256.074 16.6667 255.158 18.7 254.924 21.3H272.224Z" fill="#141414"/>
<path d="M315.88 9.1C318.013 9.1 319.913 9.55 321.58 10.45C323.247 11.3167 324.563 12.6333 325.53 14.4C326.497 16.1667 326.98 18.3167 326.98 20.85V37H322.48V21.5C322.48 18.7667 321.797 16.6833 320.43 15.25C319.097 13.7833 317.28 13.05 314.98 13.05C312.613 13.05 310.73 13.8167 309.33 15.35C307.93 16.85 307.23 19.0333 307.23 21.9V37H302.73V21.5C302.73 18.7667 302.047 16.6833 300.68 15.25C299.347 13.7833 297.53 13.05 295.23 13.05C292.863 13.05 290.98 13.8167 289.58 15.35C288.18 16.85 287.48 19.0333 287.48 21.9V37H282.93V9.6H287.48V13.55C288.38 12.1167 289.58 11.0167 291.08 10.25C292.613 9.48333 294.297 9.1 296.13 9.1C298.43 9.1 300.463 9.61667 302.23 10.65C303.997 11.6833 305.313 13.2 306.18 15.2C306.947 13.2667 308.213 11.7667 309.98 10.7C311.747 9.63333 313.713 9.1 315.88 9.1Z" fill="#141414"/>
<path d="M346.394 37.45C343.827 37.45 341.494 36.8667 339.394 35.7C337.327 34.5333 335.694 32.8833 334.494 30.75C333.327 28.5833 332.744 26.0833 332.744 23.25C332.744 20.45 333.344 17.9833 334.544 15.85C335.777 13.6833 337.444 12.0333 339.544 10.9C341.644 9.73333 343.994 9.15 346.594 9.15C349.194 9.15 351.544 9.73333 353.644 10.9C355.744 12.0333 357.394 13.6667 358.594 15.8C359.827 17.9333 360.444 20.4167 360.444 23.25C360.444 26.0833 359.81 28.5833 358.544 30.75C357.31 32.8833 355.627 34.5333 353.494 35.7C351.36 36.8667 348.994 37.45 346.394 37.45ZM346.394 33.45C348.027 33.45 349.56 33.0667 350.994 32.3C352.427 31.5333 353.577 30.3833 354.444 28.85C355.344 27.3167 355.794 25.45 355.794 23.25C355.794 21.05 355.36 19.1833 354.494 17.65C353.627 16.1167 352.494 14.9833 351.094 14.25C349.694 13.4833 348.177 13.1 346.544 13.1C344.877 13.1 343.344 13.4833 341.944 14.25C340.577 14.9833 339.477 16.1167 338.644 17.65C337.81 19.1833 337.394 21.05 337.394 23.25C337.394 25.4833 337.794 27.3667 338.594 28.9C339.427 30.4333 340.527 31.5833 341.894 32.35C343.26 33.0833 344.76 33.45 346.394 33.45Z" fill="#141414"/>
<path d="M376.126 37.45C374.026 37.45 372.143 37.1 370.476 36.4C368.809 35.6667 367.493 34.6667 366.526 33.4C365.56 32.1 365.026 30.6167 364.926 28.95H369.626C369.76 30.3167 370.393 31.4333 371.526 32.3C372.693 33.1667 374.21 33.6 376.076 33.6C377.81 33.6 379.176 33.2167 380.176 32.45C381.176 31.6833 381.676 30.7167 381.676 29.55C381.676 28.35 381.143 27.4667 380.076 26.9C379.01 26.3 377.36 25.7167 375.126 25.15C373.093 24.6167 371.426 24.0833 370.126 23.55C368.86 22.9833 367.76 22.1667 366.826 21.1C365.926 20 365.476 18.5667 365.476 16.8C365.476 15.4 365.893 14.1167 366.726 12.95C367.559 11.7833 368.743 10.8667 370.276 10.2C371.81 9.5 373.56 9.15 375.526 9.15C378.56 9.15 381.01 9.91667 382.876 11.45C384.743 12.9833 385.743 15.0833 385.876 17.75H381.326C381.226 16.3167 380.643 15.1667 379.576 14.3C378.543 13.4333 377.143 13 375.376 13C373.743 13 372.443 13.35 371.476 14.05C370.509 14.75 370.026 15.6667 370.026 16.8C370.026 17.7 370.31 18.45 370.876 19.05C371.476 19.6167 372.21 20.0833 373.076 20.45C373.976 20.7833 375.21 21.1667 376.776 21.6C378.743 22.1333 380.343 22.6667 381.576 23.2C382.81 23.7 383.859 24.4667 384.726 25.5C385.626 26.5333 386.093 27.8833 386.126 29.55C386.126 31.05 385.71 32.4 384.876 33.6C384.043 34.8 382.86 35.75 381.326 36.45C379.826 37.1167 378.093 37.45 376.126 37.45Z" fill="#141414"/>
</svg>
